<?xml version="1.0" standalone="no"?>
<!DOCTYPE svg PUBLIC "-//W3C//DTD SVG 20010904//EN"
 "http://www.w3.org/TR/2001/REC-SVG-20010904/DTD/svg10.dtd">
<svg version="1.0" xmlns="http://www.w3.org/2000/svg"
 width="1024.000000pt" height="1024.000000pt" viewBox="0 0 1024.000000 1024.000000"
 preserveAspectRatio="xMidYMid meet">
<metadata>
Created by potrace 1.14, written by Peter Selinger 2001-2017
</metadata>
<g transform="translate(0.000000,1024.000000) scale(0.100000,-0.100000)"
fill="#000000" stroke="none">
<path d="M0 5120 l0 -5120 5120 0 5120 0 0 5120 0 5120 -5120 0 -5120 0 0
-5120z m5120 3840 l0 -230 -69 0 c-244 0 -631 -56 -892 -130 -621 -176 -1139
-479 -1594 -935 -586 -585 -937 -1319 -1037 -2170 -19 -168 -16 -617 6 -790
106 -838 454 -1555 1036 -2135 585 -584 1295 -929 2135 -1037 192 -24 643 -24
830 0 461 61 833 173 1214 367 358 182 641 388 926 674 641 643 1010 1483
1051 2394 l7 152 229 0 228 0 0 -2095 0 -2095 -230 0 -230 0 0 1153 0 1152
-66 -115 c-560 -980 -1477 -1678 -2559 -1949 -339 -85 -599 -115 -985 -115
-317 0 -466 12 -730 60 -1182 216 -2214 949 -2809 1994 l-71 125 0 -1152 0
-1153 -230 0 -231 0 4 2253 c2 2074 4 2263 20 2387 68 524 193 942 414 1380
392 779 1018 1406 1798 1801 546 276 1143 426 1738 437 l97 2 0 -230z m395
-1079 c852 -130 1565 -605 2001 -1334 835 -1398 296 -3210 -1171 -3932 -843
-415 -1845 -374 -2652 109 -846 506 -1363 1415 -1363 2396 0 1017 554 1950
1454 2449 318 176 692 290 1081 330 144 15 500 5 650 -18z"/>
<path d="M4940 7444 c-491 -46 -901 -209 -1283 -510 -107 -85 -302 -285 -388
-399 -236 -314 -377 -638 -446 -1025 -23 -127 -26 -174 -27 -375 -1 -303 25
-479 110 -740 117 -355 305 -659 578 -930 357 -354 794 -572 1306 -652 159
-24 500 -24 660 0 407 63 755 210 1088 459 124 93 336 305 431 431 247 331
395 681 458 1087 24 160 24 501 0 660 -81 518 -299 951 -662 1315 -392 393
-872 619 -1434 675 -95 9 -308 11 -391 4z"/>
</g>
</svg>
