<?xml version="1.0" encoding="UTF-8" standalone="no"?>
<svg
   xmlns:dc="http://purl.org/dc/elements/1.1/"
   xmlns:cc="http://creativecommons.org/ns#"
   xmlns:rdf="http://www.w3.org/1999/02/22-rdf-syntax-ns#"
   xmlns:svg="http://www.w3.org/2000/svg"
   xmlns="http://www.w3.org/2000/svg"
   xmlns:xlink="http://www.w3.org/1999/xlink"
   width="13.45659mm"
   height="13.348071mm"
   viewBox="0 0 13.45659 13.348071"
   version="1.1"
   id="svg8">
  <defs
     id="defs2">
    <linearGradient
       id="linearGradient922">
      <stop
         id="stop918"
         offset="0"
         style="stop-color:#0000ff;stop-opacity:1;" />
      <stop
         id="stop920"
         offset="1"
         style="stop-color:#0000ff;stop-opacity:0;" />
    </linearGradient>
    <radialGradient
       gradientUnits="userSpaceOnUse"
       gradientTransform="matrix(0.26458333,0,0,0.26245004,-4.61776,-4.795903)"
       r="25.429729"
       fy="43.703316"
       fx="42.882683"
       cy="43.703316"
       cx="42.882683"
       id="radialGradient924"
       xlink:href="#linearGradient922" />
  </defs>
  <metadata
     id="metadata5">
    <rdf:RDF>
      <cc:Work
         rdf:about="">
        <dc:format>image/svg+xml</dc:format>
        <dc:type
           rdf:resource="http://purl.org/dc/dcmitype/StillImage" />
        <dc:title></dc:title>
      </cc:Work>
    </rdf:RDF>
  </metadata>
  <path
     id="path875"
     d="M 2.4267712,7.9107662 1.5338024,10.341625 3.0386201,11.631469 5.3702607,10.755037 Z"
     style="fill:none;stroke:#0000ff;stroke-width:0.26458332px;stroke-linecap:butt;stroke-linejoin:miter;stroke-opacity:1" />
  <path
     id="path894"
     d="m 7.80112,2.7679277 2.480469,-0.686263 0.942578,0.6614583 -0.42168,2.3399088 z"
     style="fill:none;stroke:#0000ff;stroke-width:0.26458332px;stroke-linecap:butt;stroke-linejoin:miter;stroke-opacity:1" />
  <path
     id="path900"
     d="M 5.5148518,13.174876 5.3160701,13.00284 4.9732778,12.976285 c -0.298486,-0.02312 -0.3677634,-0.03663 -0.5359927,-0.104494 l -0.1932003,-0.07794 -0.16559,0.06903 c -0.1402689,0.05848 -0.2075715,0.07107 -0.4401365,0.08232 l -0.2745465,0.01329 -0.035633,-0.08528 c -0.019598,-0.04691 -0.04723,-0.08528 -0.061404,-0.08528 -0.014174,0 -0.1568371,0.0419 -0.3170275,0.09311 l -0.291256,0.09311 -0.1145235,-0.05803 c -0.1418847,-0.0719 -0.150263,-0.07184 -0.3952973,0.0029 l -0.1997808,0.06094 -0.1928635,-0.04047 c -0.205822,-0.04319 -0.2714384,-0.03954 -0.88847459,0.04952 l -0.23902352,0.0345 -0.12346067,-0.08513 c -0.11157055,-0.07693 -0.1342509,-0.08387 -0.23549662,-0.07201 -0.10192226,0.01194 -0.11435953,0.008 -0.13777436,-0.04336 -0.0208942,-0.04586 -0.0155945,-0.07979 0.0281493,-0.180253 0.0502134,-0.115325 0.0562255,-0.180242 0.0881742,-0.952067 0.0298559,-0.721267 0.029949,-0.859427 7.1437e-4,-1.069151 -0.0378166,-0.271347 -0.0377685,-0.271442 0.12267301,-0.242038 0.0570008,0.01044 0.10775579,0.01491 0.11278923,0.0099 0.005032,-0.005 0.0212857,-0.364513 0.0361177,-0.7989432 0.0246406,-0.7217151 0.0179229,-0.9412409 -0.028829,-0.9422305 -0.009043,-1.87e-4 -0.0554879,-0.034393 -0.10321237,-0.076005 L 0.30160053,8.4965878 0.22826253,8.0756383 C 0.1879268,7.844116 0.14923201,7.5425082 0.142274,7.405399 0.1306535,7.1764355 0.133855,7.149263 0.1815144,7.0721473 0.2100545,7.0259683 0.241102,6.9881853 0.250509,6.9881853 c 0.009406,0 0.0480126,0.032533 0.0857904,0.072295 0.037778,0.039762 0.0993555,0.094328 0.13683906,0.1212572 l 0.0681522,0.048962 -0.0156713,-0.4154167 C 0.51249064,6.4672831 0.50192583,6.3812229 0.46052859,6.2849894 0.43261346,6.2200988 0.41699246,6.147618 0.42462913,6.1184154 0.43373873,6.0835801 0.40786778,6.0118632 0.34530811,5.8985335 L 0.25246793,5.7303484 0.28390017,5.4547687 C 0.30948802,5.2304391 0.3098796,5.1451393 0.28601683,4.9960985 0.25133631,4.7795052 0.17723075,4.5469947 0.09729616,4.4039758 L 0.03973844,4.3009939 0.0876857,3.9258885 0.13563323,3.5507834 0.08601115,3.345979 0.03638908,3.1411746 0.09524167,2.9207552 0.15409426,2.7003359 0.10900291,2.569964 C 0.01517187,2.2986717 0.01332799,2.2602632 0.08629637,2.0969584 0.2137324,1.8117492 0.23143303,1.4647058 0.14396628,0.96626889 0.11405328,0.79580738 0.0959071,0.74666394 0.04851493,0.70776807 -0.03513865,0.63911161 -0.00832895,0.52906769 0.11134527,0.44987102 c 0.0701204,-0.0464037 0.085865,-0.0696955 0.0773213,-0.11438757 -0.0097,-0.0507392 -0.003207,-0.0557593 0.067718,-0.0523663 0.0431451,0.002064 0.25551447,-0.0165629 0.47193146,-0.0413954 l 0.39348597,-0.045148 0.4601062,0.0659355 0.4601062,0.0659355 0.5921959,-0.0266949 0.5921963,-0.0266946 0.1327724,0.0794904 0.1327726,0.0794904 0.4639411,0.0152135 C 4.565181,0.46923085 4.8164772,0.42765687 5.17342,0.24782487 5.3220386,0.17294938 5.5034207,0.1049467 5.6626261,0.06441518 L 5.9156418,5.1946266e-7 6.2048454,0.09022634 6.4940485,0.18045217 6.7391516,0.0983763 6.9842545,0.01630017 7.2609994,0.10218551 c 0.1882815,0.0584314 0.3791982,0.14130152 0.5972558,0.25924721 l 0.3205113,0.17336188 0.3791471,-0.006432 0.3791468,-0.006432 0.018084,-0.058465 c 0.00995,-0.0321559 0.040198,-0.13476234 0.067226,-0.22801447 l 0.049146,-0.16954606 h 0.2764523 c 0.203913,0 0.3770053,0.01810015 0.6596663,0.06897873 0.210768,0.0379383 0.492252,0.0862076 0.625519,0.10726552 l 0.242305,0.0382865 0.133129,-0.0597448 c 0.08451,-0.0379246 0.212464,-0.0687321 0.350345,-0.0843515 0.19494,-0.0220821 0.230785,-0.0198781 0.349535,0.0215 0.07278,0.0253603 0.237556,0.0626253 0.36618,0.0828138 0.206112,0.0323506 0.271322,0.0328882 0.549573,0.004532 l 0.315712,-0.0321752 0.175395,0.12594008 c 0.09647,0.0692671 0.191718,0.13877475 0.211666,0.15446163 0.02129,0.0167428 0.04713,0.0997482 0.06256,0.20097829 l 0.02629,0.17245674 -0.129456,0.23382284 c -0.101986,0.1842053 -0.122705,0.2381004 -0.09764,0.2539813 0.0175,0.011086 0.04482,0.02032 0.06072,0.020516 0.0159,1.963e-4 0.05799,0.044289 0.09355,0.097983 l 0.06464,0.097625 0.0075,0.6916557 c 0.0073,0.672844 -0.0281,2.0998393 -0.05269,2.1244281 -0.0067,0.00673 -0.0959,0.00249 -0.19816,-0.00941 l -0.185919,-0.021653 -0.0279,0.1478706 c -0.01535,0.081329 -0.02138,0.188633 -0.01342,0.2384538 0.01239,0.077468 9.52e-4,0.1140636 -0.07902,0.2527626 -0.05143,0.089199 -0.0935,0.1701357 -0.0935,0.1798602 0,0.029774 0.140696,0.2038293 0.286492,0.3544195 l 0.138369,0.1429194 -0.05121,0.1719609 -0.05121,0.171961 0.06458,0.4217813 c 0.07436,0.4856958 0.07082,0.5350912 -0.0734,1.0220113 -0.06472,0.2185154 -0.07713,0.2873004 -0.05438,0.3013633 0.01622,0.010022 0.100021,0.025305 0.186233,0.033964 l 0.156748,0.015743 0.01526,0.5767245 c 0.0814,3.0770118 0.08736,3.4813288 0.05952,4.0378648 -0.01544,0.308696 -0.03107,0.564704 -0.03472,0.568905 -0.0037,0.0042 -0.190547,-0.073 -0.415324,-0.171554 l -0.408684,-0.179194 -0.183919,0.07902 -0.183918,0.07902 -0.02058,0.128517 -0.02058,0.128517 -0.353599,0.07589 -0.353599,0.07589 -0.245554,-0.09031 c -0.241603,-0.08886 -0.248465,-0.08994 -0.426528,-0.06716 -0.152561,0.01951 -0.202547,0.01662 -0.318387,-0.01846 l -0.137414,-0.0416 -0.19532,0.08819 -0.1953209,0.08819 -0.386656,0.01012 c -0.212661,0.0056 -0.48137,3.97e-4 -0.597131,-0.01148 -0.2502776,-0.02568 -0.8182705,0.02951 -1.2518067,0.121644 -0.2452928,0.05213 -0.2944805,0.05541 -0.5457354,0.03646 C 7.0148742,13.3146 6.7573356,13.287843 6.5944457,13.266594 L 6.2982822,13.22796 6.0320458,13.28858 C 5.8856159,13.32192 5.7540693,13.34869 5.7397199,13.34806 5.7253719,13.347425 5.6241782,13.2695 5.5148484,13.17488 Z M 4.3104685,11.282124 C 5.0050352,11.02102 5.568055,10.797916 5.561624,10.786338 5.5450781,10.75655 2.407867,7.7260081 2.386781,7.7194433 2.3772348,7.716472 2.1499265,8.313422 1.8816523,9.0460011 l -0.4877716,1.3319619 0.066822,0.05686 c 0.036752,0.03127 0.3983198,0.341701 0.8034837,0.689844 0.4051639,0.348143 0.7471852,0.632809 0.7600476,0.632592 0.012861,-2.11e-4 0.5916679,-0.214027 1.2862346,-0.475132 z M 11.875627,10.045916 C 12.201195,9.2580975 12.472023,8.5968156 12.477468,8.5764012 12.484745,8.549115 11.172271,7.6514716 7.52225,5.1873679 4.7914352,3.3438142 2.5461461,1.8354519 2.5327188,1.8354519 c -0.029291,0 -1.4407266,0.6373913 -1.4698265,0.6637602 -0.011163,0.010115 0.00323,0.03241 0.031979,0.049544 0.028752,0.017134 1.972011,2.0332935 4.3183539,4.4803549 l 4.2660784,4.449202 h 0.8021914 0.802191 z M 11.116176,4.018153 c 0.123185,-0.6881355 0.22877,-1.2674103 0.234635,-1.2872776 0.0075,-0.025556 -0.142445,-0.1435446 -0.51283,-0.4034099 -0.287922,-0.2020083 -0.533106,-0.3672877 -0.544853,-0.3672877 -0.02542,0 -2.7266452,0.7469034 -2.736362,0.7566205 -0.00369,0.00369 0.7429735,0.5853506 1.6592444,1.2925866 0.9162706,0.707236 1.6682526,1.2800428 1.6710706,1.2729038 0.0028,-0.00714 0.105911,-0.576 0.229095,-1.2641357 z"
     style="opacity:1;fill:#9b3425;fill-opacity:1;stroke:url(#radialGradient924);stroke-width:0;stroke-linejoin:miter;stroke-miterlimit:4;stroke-dasharray:none;stroke-opacity:0" />
  <path
     id="path2430"
     d="M 5.5094876,13.166163 5.3154629,13.000966 5.053459,12.979353 C 4.7262784,12.952361 4.5737694,12.92238 4.3891471,12.848761 l -0.145061,-0.05784 -0.1546661,0.06188 c -0.1323605,0.05295 -0.4562806,0.10166 -0.7018491,0.105537 -0.013258,2.11e-4 -0.036013,-0.03117 -0.050567,-0.06972 -0.014555,-0.03856 -0.042817,-0.07638 -0.062808,-0.08405 -0.019992,-0.0077 -0.1684686,0.02586 -0.3299518,0.07452 l -0.2936055,0.08846 -0.1053682,-0.05119 c -0.1334585,-0.06484 -0.1905127,-0.06421 -0.4132866,0.0045 -0.1693669,0.05226 -0.1896404,0.05376 -0.3274052,0.0242 -0.2021541,-0.04337 -0.3726632,-0.0402 -0.7542228,0.01399 -0.41718659,0.05925 -0.42532332,0.05889 -0.54791959,-0.02418 -0.0823399,-0.05579 -0.12782735,-0.06973 -0.22756892,-0.06973 -0.11346894,0 -0.12597606,-0.0052 -0.13933408,-0.05847 -0.00844,-0.03363 0.001826,-0.0997 0.0241538,-0.155518 0.06198,-0.154903 0.0868505,-0.53327 0.0943065,-1.43473 l 0.006964,-0.841899 0.11693313,0.0078 0.11693314,0.0078 0.0177694,-0.4872158 c 0.009774,-0.2679687 0.0188542,-0.6537958 0.0201824,-0.857394 l 0.002408,-0.3701777 -0.0624994,-0.045555 C 0.30148914,8.5050245 0.30976716,8.5232083 0.23866568,8.1157619 0.20182536,7.904649 0.16517051,7.5947878 0.15721026,7.4271814 0.14306299,7.1293243 0.14399961,7.121 0.19864375,7.0585827 l 0.0559064,-0.063859 0.13944097,0.1198242 c 0.0766927,0.065904 0.14320811,0.1085233 0.14781239,0.094711 0.0208995,-0.0627 -0.0413432,-0.8182142 -0.0751906,-0.9126765 -0.0201665,-0.056282 -0.0366673,-0.1336709 -0.0366673,-0.1719755 0,-0.038305 -0.0382278,-0.1423929 -0.0849508,-0.2313069 L 0.26004375,5.731638 0.28833114,5.4439576 C 0.32575751,5.0633301 0.27840133,4.7836365 0.11939628,4.4461758 L 0.04777198,4.2941663 0.09323481,3.9171837 0.13869789,3.5402009 0.08956159,3.3442246 0.04042556,3.1482482 0.09779252,2.9294397 0.15515921,2.7106314 0.08969045,2.4972073 0.02422142,2.2837833 0.10430656,2.0612055 c 0.0785162,-0.2182172 0.0800595,-0.22968 0.0787596,-0.5850623 -0.001455,-0.3998706 -0.044436,-0.66001794 -0.12619805,-0.76396135 -0.07121975,-0.0905412 -0.05985404,-0.15288234 0.04567264,-0.25051941 0.0514493,-0.0476028 0.0935442,-0.10717371 0.0935442,-0.13238003 0,-0.0394631 0.017055,-0.0460841 0.12277698,-0.047662 0.0675272,-0.001005 0.27537119,-0.0194231 0.46187519,-0.0409257 l 0.33909828,-0.039093 0.4443354,0.0646914 c 0.4438258,0.0646173 0.4450339,0.0646618 1.0529353,0.0387757 l 0.6085996,-0.0259159 0.1444995,0.086078 0.1444996,0.086078 0.5916003,-0.008718 0.591601,-0.008718 0.1987817,-0.0719331 C 5.0060176,0.32237652 5.1796594,0.25213176 5.2825582,0.20584 5.3854568,0.15954823 5.5698748,0.09501451 5.6923758,0.0624316 L 5.915105,0.00319007 6.2027055,0.09429034 6.490306,0.18539062 6.7387177,0.10220641 6.9871297,0.01902247 7.2541028,0.10688954 c 0.146835,0.0483269 0.4209298,0.16703674 0.6090994,0.26379937 l 0.3421266,0.17593204 0.3590369,-0.0109114 c 0.2712612,-0.008244 0.3639238,-0.0188198 0.3790259,-0.0432554 0.010993,-0.0177879 0.044227,-0.12064259 0.07385,-0.22856454 l 0.053862,-0.19622164 0.3390982,0.01146704 c 0.2530994,0.0085593 0.4802736,0.03620347 0.8957612,0.10900066 l 0.556663,0.0975323 0.14492,-0.0578064 c 0.07971,-0.0317937 0.229875,-0.0693714 0.33371,-0.0835062 0.176073,-0.0239686 0.206006,-0.0213307 0.444335,0.0391597 0.223795,0.056801 0.299128,0.0648089 0.606336,0.0644549 0.192935,-2.2225e-4 0.394047,-0.008004 0.446915,-0.0172932 0.09122,-0.0160285 0.106091,-0.009692 0.291639,0.12430178 0.107532,0.0776547 0.203163,0.15356681 0.212511,0.16869357 0.0093,0.0151262 0.02876,0.0972629 0.04315,0.18252519 l 0.02615,0.15502202 -0.118462,0.22171007 c -0.06516,0.1219403 -0.118463,0.2322999 -0.118463,0.2452433 0,0.012943 0.02588,0.035326 0.05752,0.049739 0.03163,0.014412 0.08588,0.069071 0.120553,0.121462 l 0.06304,0.095256 -0.01534,1.2796102 c -0.0084,0.7037859 -0.02213,1.3310529 -0.03042,1.3939274 l -0.01507,0.1143172 -0.192917,-0.013615 -0.192918,-0.013615 -0.01582,0.1055089 c -0.0087,0.05803 -0.01582,0.1648778 -0.01582,0.2374392 0,0.1074756 -0.01677,0.1643132 -0.09047,0.306637 l -0.09047,0.1747068 0.05003,0.071803 c 0.02752,0.039492 0.123282,0.1479979 0.212807,0.2411243 l 0.162773,0.1693214 -0.04934,0.1814701 -0.04934,0.1814697 0.05865,0.3858705 c 0.07031,0.4625324 0.06447,0.5794743 -0.04893,0.9809892 -0.04522,0.1601052 -0.08221,0.3092323 -0.08221,0.3313938 0,0.041666 0.03157,0.052314 0.239708,0.080859 0.09297,0.01275 0.11113,0.023381 0.111368,0.065197 1.64e-4,0.02748 0.01536,0.6182452 0.03379,1.3128119 0.06055,2.2819447 0.06617,2.7800167 0.03717,3.2970097 -0.01514,0.269874 -0.03149,0.49465 -0.03634,0.499502 -0.0049,0.0049 -0.19095,-0.06935 -0.41355,-0.164895 l -0.404727,-0.173719 -0.174985,0.07609 c -0.17965,0.07812 -0.197654,0.09823 -0.222042,0.248062 -0.01616,0.0993 -0.0044,0.09445 -0.448351,0.185249 l -0.260661,0.05332 -0.253832,-0.08517 c -0.235401,-0.07899 -0.268267,-0.08425 -0.452614,-0.07243 -0.13912,0.0089 -0.233733,0.0025 -0.31523,-0.02148 -0.116394,-0.03421 -0.116538,-0.03418 -0.312545,0.05594 l -0.1960976,0.09017 -0.7281352,-6.35e-4 c -0.7668146,-6.62e-4 -0.9244832,0.01114 -1.453104,0.108776 -0.3646676,0.06735 -0.4928709,0.06599 -1.1320084,-0.01206 l -0.3368818,-0.04114 -0.2360774,0.05372 c -0.1298424,0.02955 -0.2623865,0.0536 -0.2945424,0.05345 -0.038293,-1.87e-4 -0.1254101,-0.05727 -0.25249,-0.165466 z M 4.0907331,11.100123 C 4.6533915,10.888229 5.1170931,10.711516 5.1211806,10.707428 5.1284858,10.700123 2.9271938,8.5648675 2.6352684,8.2960884 2.5531819,8.2205101 2.4812346,8.1634591 2.4753857,8.1693082 2.4695358,8.1751582 2.2906174,8.6526816 2.0777879,9.2304734 1.8433694,9.8668744 1.6981283,10.292807 1.7093516,10.310945 c 0.014155,0.02288 1.3391782,1.170732 1.3549498,1.173781 0.00188,3.7e-4 0.4637735,-0.172708 1.0264317,-0.384603 z M 11.656297,9.9302124 C 11.948766,9.2227835 12.181311,8.6371564 12.173064,8.6288191 12.161735,8.6173626 6.6694175,4.9080232 2.822999,2.3140747 L 2.5149547,2.1063357 2.0099051,2.3336837 C 1.7321277,2.458725 1.5085421,2.5720916 1.513048,2.5856094 c 0.00451,0.013518 1.864769,1.9630495 4.1339177,4.3322927 l 4.1257251,4.3077149 0.6759222,-0.0046 0.675924,-0.0046 z M 10.894274,3.8512252 c 0.09699,-0.5383509 0.176344,-0.9967489 0.176344,-1.0186622 0,-0.024916 -0.141856,-0.1397146 -0.378631,-0.306414 -0.208248,-0.1466146 -0.392086,-0.2748047 -0.40853,-0.284867 -0.02991,-0.018304 -2.1842325,0.564125 -2.1814276,0.5897567 0.00188,0.017132 2.6002896,2.0146177 2.6091616,2.0057459 0.0037,-0.00371 0.08609,-0.4472085 0.183083,-0.9855594 z"
     style="opacity:1;fill:#9b3425;fill-opacity:1;stroke:#0000ff;stroke-width:0;stroke-linejoin:miter;stroke-miterlimit:4;stroke-dasharray:none;stroke-opacity:0" />
</svg>
