<?xml version="1.0" standalone="no"?>
<!DOCTYPE svg PUBLIC "-//W3C//DTD SVG 20010904//EN"
 "http://www.w3.org/TR/2001/REC-SVG-20010904/DTD/svg10.dtd">
<svg version="1.0" xmlns="http://www.w3.org/2000/svg"
 width="260.000000pt" height="260.000000pt" viewBox="0 0 260.000000 260.000000"
 preserveAspectRatio="xMidYMid meet">
<metadata>
Created by potrace 1.14, written by Peter Selinger 2001-2017
</metadata>
<g transform="translate(0.000000,260.000000) scale(0.100000,-0.100000)"
fill="#000000" stroke="none">
<path d="M1150 2593 c-409 -63 -721 -256 -937 -583 -148 -223 -214 -461 -208
-740 4 -148 5 -160 31 -265 8 -33 16 -67 18 -75 1 -8 6 -24 10 -35 4 -11 22
-55 38 -98 56 -144 169 -309 294 -429 204 -195 430 -308 716 -356 84 -14 348
-7 438 12 549 116 945 530 1035 1081 13 79 14 330 1 390 -4 17 -11 55 -17 85
-30 151 -122 356 -218 484 -214 286 -504 463 -854 523 -39 6 -313 11 -347 6z
m-38 -560 c-70 -67 -96 -122 -96 -202 0 -56 4 -67 26 -86 18 -15 35 -21 52
-18 l25 5 0 -392 c0 -434 -1 -428 65 -455 55 -23 133 0 205 61 l31 26 0 336
c-1 317 -2 337 -22 376 -11 23 -32 54 -47 70 l-26 29 55 -7 c30 -4 65 -14 77
-22 21 -13 25 -11 70 33 102 99 208 162 337 202 91 28 109 28 75 -2 -44 -39
-118 -136 -148 -195 -53 -105 -54 -120 -52 -491 2 -394 -2 -376 86 -367 27 3
51 10 53 16 2 5 8 10 14 10 12 0 72 47 132 104 21 20 40 35 43 33 2 -3 -10
-40 -26 -84 -33 -84 -98 -188 -159 -255 -77 -84 -245 -195 -260 -172 -4 6 -32
39 -62 73 l-54 62 -111 -110 c-93 -92 -114 -109 -137 -106 -15 2 -50 6 -78 9
-170 19 -380 138 -491 278 l-30 37 31 -9 c16 -5 42 -6 58 -4 58 11 57 5 57
365 l0 331 -35 29 c-52 44 -97 37 -152 -24 -30 -33 -98 -160 -98 -182 0 -8 -4
-16 -9 -19 -8 -6 -7 41 4 113 45 295 280 558 565 635 84 22 87 20 32 -31z"/>
</g>
</svg>
